<?xml version="1.0" standalone="no"?>
<!DOCTYPE svg PUBLIC "-//W3C//DTD SVG 20010904//EN"
 "http://www.w3.org/TR/2001/REC-SVG-20010904/DTD/svg10.dtd">
<svg version="1.0" xmlns="http://www.w3.org/2000/svg"
 width="658.000000pt" height="658.000000pt" viewBox="0 0 658.000000 658.000000"
 preserveAspectRatio="xMidYMid meet">

<g transform="translate(0.000000,658.000000) scale(0.100000,-0.100000)"
fill="#000000" stroke="none">
<path d="M3170 5954 c-804 -54 -1498 -430 -1992 -1079 -140 -184 -296 -486
-381 -735 -182 -533 -182 -1162 0 -1700 162 -477 447 -890 838 -1213 323 -266
732 -462 1137 -546 207 -42 339 -55 553 -55 433 1 823 95 1206 290 249 127
452 277 664 489 215 214 362 416 495 676 281 550 360 1184 225 1797 -64 290
-210 632 -377 883 -433 651 -1107 1072 -1879 1173 -117 16 -391 27 -489 20z
m-16 -153 c20 -22 18 -31 -25 -126 -18 -41 -39 -70 -56 -80 -22 -12 -23 -15
-8 -13 46 6 63 -40 23 -60 -19 -10 -12 -11 34 -6 47 5 59 3 64 -9 12 -33 -13
-55 -73 -62 -32 -4 -89 -16 -127 -27 -56 -16 -70 -17 -77 -6 -18 26 -5 53 31
64 19 6 36 18 38 25 3 8 1 11 -3 7 -12 -11 -35 11 -28 28 3 8 11 14 19 14 8 0
14 4 14 9 0 5 -9 7 -19 4 -25 -6 -37 16 -46 87 -10 73 -15 79 -33 39 -19 -43
-18 -68 4 -84 16 -12 16 -14 -4 -40 -27 -34 -27 -41 -2 -48 38 -10 21 -34 -73
-109 -41 -33 -45 -33 -69 -11 -21 19 -24 59 -4 70 28 17 36 48 19 73 -15 22
-15 24 10 42 35 26 34 44 -3 63 -36 19 -38 34 -7 62 50 46 120 69 142 47 8 -9
15 -11 15 -5 0 6 11 11 23 11 13 0 27 3 30 7 15 15 114 51 143 52 19 1 38 -6
48 -18z m705 -76 c87 0 95 -2 109 -24 15 -22 15 -25 -8 -43 -13 -11 -37 -22
-53 -25 -22 -5 -33 -16 -48 -50 -28 -65 -26 -70 33 -77 29 -4 58 -12 65 -18
18 -15 16 -57 -3 -65 -8 -3 -68 7 -132 22 -93 22 -129 26 -183 21 -59 -5 -68
-4 -85 15 -19 21 -18 21 5 40 13 10 34 19 47 19 12 0 46 5 74 11 41 9 55 17
71 42 l19 32 -25 8 c-21 7 -25 15 -25 51 0 48 7 60 29 49 9 -4 58 -8 110 -8z
m-1727 -145 c11 -17 13 -16 40 12 20 22 35 29 55 26 46 -5 40 -33 -19 -91 -30
-28 -88 -89 -131 -134 -42 -46 -84 -83 -92 -83 -8 0 -19 9 -25 20 -10 18 -3
29 54 89 36 37 66 72 66 77 0 6 -15 17 -32 25 -43 18 -43 47 1 76 36 24 60 20
83 -17z m2492 -86 c31 -12 37 -40 15 -68 l-20 -26 32 0 c36 0 69 -24 69 -50 0
-25 -20 -30 -74 -18 -26 5 -53 7 -61 4 -35 -13 0 -133 61 -213 13 -17 24 -39
24 -47 0 -21 -41 -21 -80 -1 -29 15 -34 25 -65 148 -9 37 -22 67 -28 67 -6 0
-39 -10 -73 -21 -69 -24 -130 -20 -141 8 -8 21 23 43 61 43 17 0 54 11 81 24
l50 24 -37 16 c-43 19 -51 49 -17 67 16 8 28 8 46 0 41 -19 68 -13 91 19 23
30 37 35 66 24z m-2375 -18 c8 -9 11 -45 10 -93 -1 -72 1 -82 30 -129 24 -39
31 -57 25 -78 -8 -35 -18 -39 -70 -31 -47 7 -57 20 -24 30 20 6 20 7 -2 46
-21 37 -23 38 -44 24 -20 -13 -25 -12 -47 6 -58 45 -81 119 -37 119 10 0 32
22 51 49 45 66 84 86 108 57z m1421 -115 c444 -80 803 -265 1119 -574 306
-299 507 -669 590 -1087 120 -605 -28 -1218 -413 -1715 -66 -86 -236 -255
-330 -331 -691 -555 -1658 -617 -2415 -155 -183 112 -400 302 -532 466 -508
628 -612 1501 -266 2227 301 632 928 1093 1602 1177 50 6 101 13 115 15 14 3
113 3 220 1 142 -2 226 -9 310 -24z m-1272 -18 c2 -12 -4 -36 -13 -53 l-16
-30 -44 30 c-52 36 -56 52 -17 67 44 18 86 12 90 -14z m-208 -182 c0 -68 -58
-94 -80 -36 -12 31 3 67 24 59 7 -3 19 2 26 10 18 23 30 10 30 -33z m-640
-103 l12 -33 15 23 c8 12 23 22 33 22 32 0 39 -21 28 -78 -9 -46 -8 -55 7 -72
24 -27 47 -25 83 5 37 31 47 31 68 0 13 -20 14 -31 6 -49 -12 -26 -93 -96
-111 -96 -43 0 -148 90 -231 199 l-34 44 37 33 c47 43 71 44 87 2z m3645 -66
c-60 -56 -62 -67 -11 -94 18 -10 19 -9 9 4 -7 8 -10 18 -6 22 4 4 0 4 -10 0
-32 -12 -18 22 23 60 56 50 82 47 41 -5 -20 -26 -18 -49 5 -49 17 0 19 17 2
23 -9 3 -6 11 9 26 24 22 43 27 43 11 0 -6 10 -8 23 -5 15 4 28 1 36 -9 17
-20 6 -36 -24 -36 -12 0 -25 -7 -28 -14 -3 -8 -22 -18 -41 -22 -26 -4 -36 -11
-36 -25 0 -11 5 -19 10 -19 6 0 10 7 10 15 0 9 14 17 38 21 20 3 42 13 48 20
10 12 17 12 48 -1 20 -8 36 -21 36 -29 0 -19 -27 -39 -43 -33 -8 3 -34 -4 -58
-15 -38 -17 -42 -21 -26 -30 28 -15 38 -50 19 -70 -21 -25 -49 -22 -78 7 -33
34 -57 45 -93 45 -36 0 -39 -10 -11 -35 23 -21 26 -53 5 -61 -8 -3 -28 4 -44
15 l-29 21 -44 -25 c-50 -29 -75 -31 -106 -9 -19 13 -22 22 -16 47 8 42 11 43
33 23 13 -12 27 -15 45 -10 34 8 33 17 -9 45 -21 15 -35 32 -35 45 0 33 28 37
62 9 31 -26 53 -31 76 -16 10 6 7 10 -12 15 -28 7 -33 18 -13 33 31 25 46 20
111 -33 67 -55 114 -77 54 -26 -68 60 -130 102 -139 96 -18 -11 -79 6 -79 22
0 25 43 56 83 60 36 3 49 -8 26 -22 -7 -4 -7 -10 -1 -16 7 -7 30 9 68 45 47
44 62 53 73 44 11 -9 3 -21 -44 -65z m-3689 -147 c82 -83 84 -87 84 -134 0
-26 -5 -73 -11 -103 -10 -49 -15 -57 -38 -61 -35 -7 -64 10 -56 31 3 9 12 37
18 60 11 40 10 45 -8 58 -17 13 -21 12 -33 -11 -13 -25 -13 -25 -44 -8 -39 23
-44 37 -24 68 23 36 20 51 -19 82 -19 15 -35 32 -35 36 0 12 59 67 72 67 5 0
47 -38 94 -85z m4114 -1455 c70 -47 79 -50 138 -50 55 0 62 -2 62 -20 0 -18
-7 -20 -59 -20 -55 0 -63 -3 -134 -55 -41 -30 -78 -55 -81 -55 -3 0 -6 10 -6
23 0 16 17 33 60 62 33 22 60 42 60 45 0 3 -30 22 -65 43 -45 26 -65 44 -65
57 0 11 3 20 8 20 4 0 41 -23 82 -50z m-4617 -20 l117 0 0 -74 c0 -59 -4 -78
-21 -100 -24 -30 -78 -36 -99 -11 -11 14 -14 13 -27 -5 -20 -28 -79 -27 -110
2 -21 19 -23 30 -23 111 0 88 0 89 23 83 12 -3 75 -6 140 -6z m4617 -233 c0
-7 -13 -23 -30 -35 -26 -20 -30 -29 -30 -72 0 -40 4 -52 26 -69 97 -77 222 0
184 114 -10 29 -16 35 -41 35 -27 0 -29 -2 -29 -40 0 -34 -3 -40 -21 -40 -17
0 -20 4 -15 23 3 12 6 39 6 60 l0 37 56 0 c53 0 55 -1 70 -35 33 -79 7 -176
-56 -207 -99 -50 -220 17 -220 121 0 41 23 96 47 110 25 15 53 14 53 -2z
m-4517 -65 c3 -16 9 -63 13 -105 6 -66 5 -77 -9 -77 -15 0 -18 9 -33 120 l-6
45 -39 -3 c-44 -5 -45 -8 -30 -109 7 -47 5 -53 -10 -53 -14 0 -19 11 -24 48
-14 109 -12 105 -58 98 -23 -4 -43 -8 -44 -10 -2 -1 2 -40 8 -85 12 -85 10
-97 -14 -88 -10 4 -17 30 -21 79 -4 40 -9 87 -12 104 l-6 30 124 16 c68 8 130
16 139 17 11 1 19 -9 22 -27z m4587 -232 c52 -27 74 -69 68 -132 -9 -86 -81
-136 -169 -117 -58 13 -74 24 -98 63 -25 39 -27 83 -7 131 30 70 126 96 206
55z m-4542 -41 c2 -12 -22 -20 -125 -37 -154 -27 -153 -27 -153 -4 0 16 17 22
113 39 129 24 161 24 165 2z m-174 -124 c3 -9 -3 -19 -15 -26 -14 -7 -19 -18
-17 -37 4 -38 37 -39 143 -7 86 27 115 27 115 3 0 -15 -179 -68 -228 -68 -60
0 -95 87 -52 130 24 24 46 26 54 5z m244 -182 c-4 -23 -249 -117 -260 -101 -4
7 -8 16 -8 19 0 4 44 24 98 44 53 21 111 43 127 50 34 14 47 10 43 -12z m4492
-12 c0 -9 -51 -155 -55 -160 -3 -3 -252 78 -263 85 -2 1 -1 11 2 22 6 18 12
16 117 -20 61 -21 114 -38 119 -38 4 0 12 19 19 42 23 77 30 88 46 82 8 -3 15
-9 15 -13z m-4446 -87 c4 -10 -18 -56 -59 -122 -35 -58 -63 -107 -61 -109 2
-2 42 15 91 37 99 46 105 47 105 22 0 -13 -30 -31 -117 -70 -65 -29 -123 -52
-129 -52 -31 0 -19 38 46 140 38 61 68 110 66 110 -2 0 -44 -18 -92 -40 -83
-39 -121 -45 -112 -18 4 11 221 115 244 117 7 1 15 -6 18 -15z m4235 -74 c57
-29 81 -64 81 -119 0 -119 -116 -180 -218 -114 -89 58 -94 157 -13 226 40 33
95 36 150 7z m-4099 -209 c61 -44 87 -123 56 -166 -19 -26 -51 -13 -36 14 19
37 11 72 -24 107 -39 39 -55 41 -113 15 -56 -26 -79 -70 -64 -122 18 -60 79
-97 109 -67 9 9 7 19 -9 45 -19 30 -19 53 1 53 4 0 23 -23 41 -51 26 -42 30
-52 18 -60 -78 -51 -76 -51 -107 -35 -67 34 -108 117 -91 179 10 38 61 90 104
105 38 14 82 7 115 -17z m3957 -82 c54 -39 99 -73 101 -74 1 -1 0 -10 -4 -19
-6 -15 -22 -17 -135 -14 -71 2 -129 1 -129 -2 0 -3 36 -30 80 -60 44 -30 79
-57 79 -60 1 -3 -3 -11 -8 -19 -7 -11 -33 4 -120 65 -153 109 -151 118 38 115
l126 -2 -82 60 c-81 59 -91 70 -76 85 11 10 24 3 130 -75z m-174 -238 c85 -74
96 -87 83 -99 -13 -13 -21 -10 -63 27 l-48 42 -48 -53 -47 -53 51 -45 c45 -41
49 -47 35 -59 -14 -12 -29 -2 -116 74 -55 48 -102 91 -105 95 -3 4 2 13 9 19
12 10 23 5 56 -25 l41 -37 44 49 c24 27 44 52 45 57 0 4 -18 23 -40 43 -32 29
-38 40 -29 50 14 17 14 17 132 -85z m-3600 -123 c-54 -54 -101 -98 -106 -98
-4 0 -11 8 -14 17 -10 25 185 207 204 191 12 -9 -4 -30 -84 -110z m175 30 c7
-9 3 -52 -12 -141 l-22 -128 76 76 c58 57 78 73 87 64 9 -9 -11 -37 -84 -116
-85 -92 -98 -102 -111 -89 -13 13 -13 27 2 123 10 59 20 117 23 128 3 12 -26
-11 -71 -55 -58 -57 -78 -72 -88 -62 -13 13 -17 8 101 133 40 44 77 79 81 79
4 0 12 -6 18 -12z m3160 -44 c14 -4 22 -13 20 -23 -3 -12 -13 -15 -44 -13 -46
4 -88 -23 -98 -63 -13 -52 59 -145 112 -145 58 0 99 46 89 100 -5 23 -3 32 9
37 41 15 42 -81 2 -124 -28 -30 -70 -53 -98 -53 -36 0 -98 39 -125 77 -70 104
17 238 133 207z m-235 -158 c4 -9 -17 -29 -59 -57 -35 -24 -64 -48 -64 -52 0
-5 9 -22 20 -37 l21 -29 63 45 c71 49 72 49 79 30 4 -9 -16 -29 -54 -56 -32
-23 -59 -47 -59 -53 0 -7 11 -25 23 -41 l24 -29 66 47 c60 43 87 51 87 26 0
-10 -153 -120 -167 -120 -8 1 -157 211 -158 223 0 7 156 117 166 117 4 0 9 -6
12 -14z m-2663 -12 c62 -37 87 -151 28 -129 -9 4 -13 16 -10 34 3 22 -3 34
-28 54 -35 30 -50 33 -68 15 -19 -19 -14 -37 23 -82 19 -23 38 -53 43 -66 21
-57 -32 -109 -98 -95 -16 4 -46 22 -66 40 -31 30 -35 38 -32 77 4 56 31 60 38
6 6 -44 30 -75 65 -84 66 -16 73 29 15 101 -44 55 -51 96 -23 127 20 23 75 24
113 2z m223 -145 c48 -28 87 -57 87 -65 0 -20 -19 -17 -59 7 -18 11 -34 19
-35 17 -2 -2 -29 -49 -61 -105 -32 -57 -61 -103 -64 -103 -3 0 -12 4 -19 8
-10 7 2 35 49 116 34 59 60 109 58 110 -2 2 -19 11 -36 20 -32 16 -45 46 -20
46 6 0 51 -23 100 -51z m2251 26 c4 -10 -7 -21 -35 -36 -22 -11 -39 -23 -37
-27 2 -4 27 -53 56 -109 47 -93 50 -103 34 -112 -15 -8 -25 6 -72 97 -30 59
-55 108 -56 110 -1 2 -20 -6 -43 -17 -48 -25 -47 -25 -55 -6 -4 11 20 28 92
65 53 27 100 49 103 49 4 1 9 -6 13 -14z m-2091 -102 c3 -5 -20 -64 -51 -133
-45 -99 -61 -125 -74 -122 -24 5 -23 8 13 88 17 38 42 92 55 121 21 48 45 66
57 46z m247 -114 c0 -23 -1 -23 -47 -4 -42 18 -53 19 -53 5 0 -18 -72 -220
-79 -220 -3 0 -12 4 -19 8 -11 8 13 94 63 223 5 12 -4 19 -39 29 -26 7 -46 14
-46 15 0 2 3 10 6 18 9 24 214 -47 214 -74z m1448 34 c-2 -10 -27 -24 -68 -38
-68 -23 -70 -26 -50 -81 l10 -24 52 20 c64 24 80 25 76 3 -2 -10 -25 -24 -60
-35 l-57 -19 20 -56 c23 -69 24 -73 0 -73 -14 0 -27 24 -59 118 -23 64 -43
123 -44 130 -2 9 24 24 72 42 90 33 113 36 108 13z m-1371 -48 c-16 -40 -39
-185 -34 -207 10 -37 67 -57 102 -34 23 15 28 27 56 139 18 73 20 77 40 77 24
0 24 9 -6 -113 -30 -120 -52 -147 -116 -147 -46 0 -94 22 -109 49 -14 28 -13
79 5 158 24 102 23 102 46 96 11 -3 18 -11 16 -18z m1119 -40 c46 -30 66 -74
61 -138 -3 -49 -8 -63 -34 -89 -26 -26 -41 -32 -85 -35 -63 -5 -93 9 -126 57
-20 30 -23 44 -20 97 4 68 21 96 73 119 36 17 96 12 131 -11z m-784 -10 c56
-9 104 -18 106 -20 3 -2 2 -11 -1 -18 -4 -11 -15 -13 -47 -7 -28 5 -43 4 -46
-4 -4 -12 -34 -209 -34 -226 0 -12 -10 -13 -27 -2 -10 7 -10 32 3 122 17 126
16 130 -43 130 -26 0 -33 4 -33 20 0 24 -5 24 122 5z m332 -21 c9 -3 16 -12
16 -20 0 -11 -19 -14 -85 -14 l-85 0 0 -40 0 -40 75 0 c69 0 75 -2 75 -21 0
-20 -5 -21 -77 -17 l-78 3 -3 -47 -3 -47 88 -3 c70 -2 88 -6 88 -18 0 -13 -17
-14 -105 -11 -58 2 -107 5 -109 7 -2 2 0 64 4 139 l7 135 88 0 c49 0 95 -3
104 -6z"/>
<path d="M3050 5750 c-8 -5 -11 -12 -8 -16 10 -9 38 3 38 16 0 12 -10 13 -30
0z"/>
<path d="M2970 5710 c0 -5 5 -10 10 -10 6 0 10 5 10 10 0 6 -4 10 -10 10 -5 0
-10 -4 -10 -10z"/>
<path d="M3040 5670 c0 -5 5 -10 10 -10 6 0 10 5 10 10 0 6 -4 10 -10 10 -5 0
-10 -4 -10 -10z"/>
<path d="M2980 5649 c0 -5 5 -7 10 -4 6 3 10 8 10 11 0 2 -4 4 -10 4 -5 0 -10
-5 -10 -11z"/>
<path d="M2166 5365 c-18 -28 -20 -35 -7 -35 5 0 14 14 20 30 12 36 9 38 -13
5z"/>
<path d="M3050 5285 c-426 -58 -818 -249 -1129 -550 -181 -175 -306 -350 -415
-577 -89 -185 -133 -323 -173 -538 -25 -135 -25 -525 0 -660 40 -219 84 -354
177 -545 201 -414 510 -725 930 -935 88 -44 201 -90 222 -90 23 0 -27 28 -72
41 -70 20 -67 26 14 34 45 4 80 12 87 21 6 7 29 19 50 24 22 6 39 14 39 19 0
5 31 29 68 54 38 25 75 53 82 62 8 9 35 27 61 41 26 13 50 28 54 34 3 5 18 10
32 10 14 0 38 11 55 25 23 19 41 25 79 25 l49 0 0 91 c0 74 3 95 19 115 l19
24 21 -26 c18 -23 21 -41 21 -115 l0 -89 49 0 c40 0 56 -6 94 -35 25 -19 54
-35 65 -35 11 0 30 -8 43 -18 13 -11 35 -22 49 -25 14 -4 49 -27 77 -52 36
-32 64 -48 90 -51 43 -6 130 -40 153 -59 8 -7 42 -15 76 -18 33 -4 68 -9 77
-13 24 -9 10 -24 -23 -24 -15 0 -30 -7 -34 -15 -4 -10 -20 -15 -53 -15 -35 0
-59 -7 -86 -25 -20 -14 -37 -21 -37 -15 0 14 46 60 60 60 6 0 9 4 6 9 -3 5
-86 9 -183 9 -141 0 -170 -2 -140 -10 43 -12 104 -66 109 -98 6 -38 23 -16 21
28 -1 30 3 42 13 42 10 0 14 -13 14 -45 0 -25 5 -45 10 -45 6 0 10 25 10 55 0
42 3 55 15 55 11 0 15 -13 17 -52 l2 -53 3 50 c6 70 23 83 23 17 0 -29 2 -52
4 -52 21 0 234 82 321 124 626 299 1048 889 1135 1586 13 108 13 338 0 455
-25 214 -91 446 -180 633 -302 633 -891 1055 -1590 1142 -113 14 -382 11 -500
-5z m870 -124 c0 -51 -22 -95 -78 -156 l-56 -60 76 -5 c42 -3 80 -8 84 -13 11
-11 -24 -34 -73 -48 -35 -9 -51 -9 -90 4 -46 15 -47 15 -90 -14 -24 -17 -43
-32 -43 -35 0 -3 4 -3 9 0 19 12 127 -25 155 -54 l29 -28 -46 -7 c-65 -10
-112 1 -151 35 -18 16 -36 26 -40 22 -4 -4 -26 -14 -49 -23 l-41 -16 55 -16
c91 -27 138 -77 87 -91 -64 -17 -130 7 -163 57 -15 23 -19 24 -52 14 -19 -6
-37 -16 -39 -22 -2 -5 2 -55 9 -110 l12 -100 195 2 c224 1 397 26 605 86 66
20 122 34 124 32 2 -2 -6 -32 -18 -66 -47 -141 -140 -234 -253 -254 -33 -6
-36 -10 -42 -48 -17 -113 -107 -186 -231 -187 -35 -1 -43 -6 -67 -40 -47 -68
-139 -97 -234 -76 l-32 7 24 -108 c13 -59 24 -115 24 -123 0 -13 -27 -15 -200
-12 -160 2 -200 6 -200 16 0 8 9 58 20 111 11 53 20 100 20 102 0 3 -22 3 -49
-1 -84 -11 -147 9 -203 65 -43 43 -54 49 -91 49 -93 0 -205 86 -229 174 -11
42 -15 45 -87 77 -86 38 -132 75 -166 133 -20 36 -55 144 -55 174 0 5 46 -5
103 -23 192 -63 376 -92 639 -102 l167 -6 5 24 c2 13 10 60 16 104 22 148 62
235 108 235 22 0 62 -40 62 -63 0 -16 5 -18 33 -12 46 10 46 11 30 57 -17 51
-12 86 24 146 24 42 27 44 39 27 21 -28 22 -141 2 -178 -8 -15 -2 -14 41 7
l50 26 -11 37 c-14 51 -5 125 20 164 l21 33 11 -29 c14 -37 17 -101 7 -138 -7
-25 -6 -27 10 -18 51 30 54 36 43 83 -13 49 -2 107 25 142 24 32 38 6 39 -73
1 -39 3 -71 5 -71 3 0 15 10 28 22 15 14 23 33 23 55 0 41 13 68 53 110 34 36
47 35 47 -6z m584 -1048 c-20 -38 -55 -95 -77 -128 -42 -62 -196 -222 -257
-267 l-34 -25 54 4 c404 31 510 37 510 30 0 -17 -90 -124 -153 -184 -82 -76
-169 -139 -272 -195 l-80 -43 115 -8 c105 -7 396 4 524 20 48 6 48 6 36 -17
-22 -41 -103 -121 -164 -163 -115 -78 -348 -172 -553 -223 -44 -11 -69 -22
-64 -27 14 -14 693 0 819 16 56 7 102 11 102 9 0 -12 -69 -100 -127 -161 -78
-83 -57 -76 -413 -151 -163 -34 -266 -53 -495 -91 -94 -15 -373 -49 -405 -49
-17 0 -30 -4 -30 -8 0 -5 14 -76 30 -157 17 -81 30 -155 30 -164 0 -12 -28
-22 -122 -44 -68 -15 -135 -27 -149 -27 -21 0 -240 43 -275 55 -7 2 1 57 22
161 18 88 31 160 30 162 -3 2 -253 43 -481 78 -81 12 -583 104 -680 124 l-100
21 -73 72 c-68 67 -139 154 -130 162 1 1 30 -1 63 -6 184 -25 911 -36 934 -14
2 3 -5 5 -15 5 -27 0 -281 64 -379 95 -44 14 -129 50 -190 79 -122 60 -222
142 -264 216 l-24 42 39 -6 c145 -24 654 -36 654 -16 0 6 -6 10 -13 10 -22 0
-185 87 -251 134 -78 56 -167 143 -223 220 -37 51 -41 61 -26 64 10 1 142 -6
293 -17 151 -10 276 -17 278 -16 1 1 -25 19 -59 40 -125 77 -250 217 -323 363
-27 53 -32 72 -22 72 8 0 100 -15 203 -34 103 -19 215 -37 248 -41 33 -3 85
-17 115 -30 30 -13 80 -26 110 -30 44 -6 64 -15 98 -46 52 -45 117 -69 189
-69 61 0 59 17 18 -136 l-21 -81 120 -7 c65 -3 172 -6 238 -6 136 0 129 -8
103 110 -8 36 -14 77 -15 91 0 26 1 27 66 28 87 1 141 29 169 88 20 42 21 42
73 43 29 0 78 9 110 21 45 16 533 114 590 118 9 1 0 -24 -24 -66z"/>
<path d="M3205 1449 c-33 -3 -50 -6 -38 -7 37 -3 82 -50 89 -93 l7 -39 57 0
c56 0 59 1 65 28 8 38 60 88 110 106 38 15 35 15 -95 13 -74 -1 -162 -5 -195
-8z m135 -69 c0 -47 -3 -60 -15 -60 -11 0 -15 13 -15 54 0 48 4 58 28 65 1 1
2 -26 2 -59z m30 -5 c0 -30 -4 -55 -10 -55 -11 0 -14 93 -3 103 12 12 13 8 13
-48z m-80 -6 c0 -31 -4 -48 -10 -44 -5 3 -10 26 -10 51 0 24 5 44 10 44 6 0
10 -23 10 -51z"/>
<path d="M2655 1443 c30 -8 75 -43 75 -58 0 -8 9 -19 20 -25 18 -10 20 -8 20
25 0 24 4 35 15 35 11 0 15 -11 15 -40 0 -22 5 -40 10 -40 6 0 10 23 10 50 0
38 4 50 15 50 11 0 15 -14 17 -57 2 -57 2 -57 5 -10 5 63 23 60 23 -5 0 -55 8
-57 25 -5 8 24 23 38 64 60 l55 27 -195 -1 c-107 -1 -185 -4 -174 -6z"/>
<path d="M3487 1418 c-26 -16 -46 -39 -64 -75 -14 -30 -23 -57 -19 -60 6 -7
237 14 262 24 18 7 18 27 -1 67 -31 65 -108 84 -178 44z"/>
<path d="M2988 1404 c-25 -13 -58 -60 -58 -82 0 -9 54 -18 208 -37 51 -7 52
-6 52 20 0 35 -24 79 -54 99 -31 20 -111 21 -148 0z"/>
<path d="M870 3284 c0 -61 14 -84 51 -84 34 0 49 27 49 91 l0 39 -50 0 -50 0
0 -46z"/>
<path d="M1000 3285 c0 -32 6 -51 20 -65 32 -32 57 -12 62 47 3 27 3 51 1 56
-2 4 -22 7 -44 7 l-39 0 0 -45z"/>
<path d="M5555 2809 c-33 -19 -45 -41 -45 -84 0 -59 32 -87 105 -93 48 -4 59
-1 80 18 46 43 41 112 -10 146 -32 21 -104 28 -130 13z"/>
<path d="M5359 2271 c-41 -41 -40 -92 2 -132 56 -53 136 -51 170 4 61 99 -89
211 -172 128z"/>
<path d="M3706 1055 c-49 -46 -29 -159 33 -185 63 -26 131 19 131 87 0 45 -23
99 -48 112 -36 19 -87 13 -116 -14z"/>
</g>
</svg>
