<?xml version="1.0" standalone="no"?>
<!DOCTYPE svg PUBLIC "-//W3C//DTD SVG 20010904//EN"
 "http://www.w3.org/TR/2001/REC-SVG-20010904/DTD/svg10.dtd">
<svg version="1.0" xmlns="http://www.w3.org/2000/svg"
 width="820.000000pt" height="640.000000pt" viewBox="0 0 820.000000 640.000000"
 preserveAspectRatio="xMidYMid meet">

<g transform="translate(0.000000,640.000000) scale(0.100000,-0.100000)"
fill="#000000" stroke="none">
<path d="M1070 3620 l0 -1710 530 0 530 0 0 148 c0 395 0 2619 0 2925 l0 347
-530 0 -530 0 0 -1710z"/>
<path d="M2390 3090 l0 -1180 530 0 530 0 0 1180 0 1180 -530 0 -530 0 0
-1180z"/>
<path d="M4712 3578 c3 -684 4 -694 27 -798 58 -261 145 -433 300 -593 220
-228 464 -331 816 -344 389 -14 683 90 919 324 217 215 319 469 346 859 6 86
10 381 8 694 l-3 545 -527 3 -528 2 0 -689 c0 -466 -4 -707 -11 -742 -7 -30
-23 -64 -39 -82 -24 -27 -35 -31 -91 -34 -52 -3 -70 0 -97 17 -64 40 -62 16
-62 810 l0 720 -531 0 -530 0 3 -692z"/>
<path d="M4023 2935 c-190 -41 -349 -183 -413 -368 -30 -87 -37 -222 -16 -311
71 -302 375 -491 675 -421 111 27 188 70 271 154 89 89 133 171 156 288 36
183 -21 368 -156 503 -139 140 -328 196 -517 155z"/>
<path d="M2197 1544 c-4 -4 -7 -16 -7 -26 0 -14 6 -19 23 -16 14 2 22 10 22
23 0 20 -25 32 -38 19z"/>
<path d="M2294 1535 c-4 -9 -2 -21 4 -27 15 -15 44 -1 40 19 -4 23 -36 29 -44
8z"/>
<path d="M2203 1471 c-64 -30 -78 -64 -78 -196 0 -87 4 -117 18 -143 46 -85
186 -89 237 -7 17 28 20 50 20 150 0 138 -14 172 -80 199 -51 20 -65 20 -117
-3z m131 -62 c24 -29 26 -37 26 -134 0 -97 -2 -105 -26 -134 -21 -26 -33 -31
-67 -31 -78 1 -97 34 -97 165 0 96 13 147 42 158 7 3 32 6 55 6 34 1 46 -4 67
-30z"/>
<path d="M3374 1470 c-63 -32 -77 -71 -72 -213 3 -113 4 -117 33 -147 84 -88
222 -45 240 74 12 78 9 81 -70 81 -63 0 -70 -2 -70 -20 0 -17 8 -20 48 -23 45
-3 47 -4 47 -33 0 -72 -98 -106 -157 -55 -28 24 -28 26 -28 134 0 97 3 114 21
139 17 23 30 29 67 31 39 3 51 -1 72 -22 14 -14 25 -37 25 -51 0 -20 5 -25 26
-25 24 0 25 2 19 33 -11 49 -50 95 -93 107 -51 14 -61 13 -108 -10z"/>
<path d="M3723 1479 c-45 -13 -73 -53 -73 -104 0 -61 27 -90 108 -115 87 -27
112 -44 112 -76 0 -39 -17 -61 -55 -74 -51 -17 -99 1 -119 44 -9 19 -16 39
-16 45 0 6 -9 11 -20 11 -25 0 -26 -29 -4 -75 20 -44 54 -65 112 -71 95 -10
165 61 142 145 -12 45 -31 59 -120 84 -75 22 -100 41 -100 78 0 44 31 69 85
69 52 0 82 -23 92 -70 4 -21 11 -30 24 -30 40 0 9 103 -39 129 -30 16 -94 21
-129 10z"/>
<path d="M1070 1275 l0 -205 110 0 c103 0 110 1 110 20 0 17 -8 19 -87 22
l-88 3 4 99 c2 55 0 137 -4 183 -6 73 -9 83 -26 83 -18 0 -19 -10 -19 -205z"/>
<path d="M1340 1275 c0 -198 1 -205 20 -205 19 0 20 7 20 205 0 198 -1 205
-20 205 -19 0 -20 -7 -20 -205z"/>
<path d="M1470 1275 c0 -198 1 -205 20 -205 19 0 20 7 20 156 0 91 4 153 9
150 5 -4 49 -74 97 -156 73 -124 92 -150 111 -150 l23 0 -2 203 c-3 200 -3
202 -25 205 -22 3 -23 2 -25 -155 l-3 -158 -93 158 c-70 118 -98 157 -112 157
-19 0 -20 -8 -20 -205z"/>
<path d="M1840 1275 l0 -206 23 3 c21 3 22 8 25 96 2 72 6 92 17 92 8 0 47
-43 86 -95 57 -76 77 -95 96 -95 25 0 25 0 8 28 -10 15 -32 45 -49 67 -17 22
-44 56 -59 77 l-27 36 58 89 c32 48 61 94 66 101 5 8 0 12 -17 12 -20 0 -36
-17 -83 -90 -78 -119 -92 -119 -96 -2 -3 82 -4 87 -25 90 l-23 3 0 -206z"/>
<path d="M2480 1274 l0 -205 23 3 c19 3 22 10 25 54 l3 51 60 6 c110 12 149
51 149 149 0 105 -53 148 -185 148 l-75 0 0 -206z m165 151 c42 -17 59 -54 51
-110 -7 -58 -42 -85 -112 -85 -30 0 -54 5 -55 10 0 6 0 37 0 70 0 142 -4 130
41 130 22 0 56 -7 75 -15z"/>
<path d="M2810 1275 c0 -197 1 -205 20 -205 18 0 19 9 22 195 2 107 2 200 0
205 -2 6 -12 10 -23 10 -18 0 -19 -10 -19 -205z"/>
<path d="M2950 1275 c0 -197 1 -205 20 -205 18 0 20 8 22 158 l3 157 93 -157
c130 -220 132 -219 132 47 0 198 -1 205 -20 205 -19 0 -20 -7 -20 -156 0 -85
-4 -153 -9 -150 -4 3 -48 73 -97 156 -123 207 -124 207 -124 -55z"/>
<path d="M4110 1318 c0 -142 3 -167 19 -194 52 -86 189 -81 238 9 15 27 18 58
18 187 0 153 0 155 -22 158 l-23 3 0 -156 c0 -93 -4 -165 -11 -177 -17 -31
-74 -51 -113 -38 -57 18 -66 49 -66 219 0 144 -1 151 -20 151 -19 0 -20 -7
-20 -162z"/>
<path d="M4480 1276 c0 -198 1 -206 20 -206 18 0 20 8 22 158 l3 157 94 -157
c63 -104 100 -158 112 -158 14 0 17 17 24 120 4 66 4 158 0 205 -6 74 -10 85
-26 85 -18 0 -19 -10 -19 -162 l0 -163 -95 160 c-66 111 -101 161 -115 163
-19 3 -20 -2 -20 -202z"/>
<path d="M4850 1275 c0 -198 1 -205 20 -205 19 0 20 7 20 205 0 198 -1 205
-20 205 -19 0 -20 -7 -20 -205z"/>
<path d="M4940 1473 c0 -4 29 -96 63 -203 58 -181 65 -195 87 -195 21 0 28 15
87 190 34 104 63 195 63 202 0 7 -9 13 -20 13 -16 0 -28 -26 -74 -167 -39
-122 -56 -163 -62 -149 -4 11 -29 85 -54 165 -40 124 -50 146 -69 149 -11 2
-21 0 -21 -5z"/>
<path d="M5290 1275 l0 -205 115 0 c108 0 115 1 115 20 0 19 -7 20 -95 20
l-95 0 0 70 0 70 70 0 c63 0 70 2 70 20 0 12 -7 20 -17 21 -10 0 -40 1 -68 2
l-50 2 0 69 0 70 30 1 c17 1 58 2 93 3 55 2 62 4 62 22 0 19 -7 20 -115 20
l-115 0 0 -205z"/>
<path d="M5580 1275 l0 -205 23 0 c22 0 23 3 19 60 l-4 60 39 0 c37 0 44 -5
87 -60 35 -45 54 -60 72 -60 l25 0 -32 45 c-18 25 -39 51 -46 57 -20 16 -16
26 17 43 44 23 63 67 58 136 -7 96 -54 129 -183 129 l-75 0 0 -205z m187 139
c42 -27 42 -130 0 -159 -14 -10 -45 -15 -85 -15 l-63 0 2 93 c1 50 3 95 5 98
6 11 119 -2 141 -17z"/>
<path d="M5928 1451 c-28 -25 -33 -36 -33 -73 0 -69 23 -94 111 -120 104 -31
133 -63 104 -118 -13 -24 -72 -43 -110 -35 -35 8 -70 48 -70 81 0 17 -6 24
-20 24 -45 0 -13 -96 43 -130 57 -35 156 -19 191 31 9 13 16 43 16 67 0 58
-28 85 -117 111 -79 24 -103 44 -103 89 0 39 31 62 83 62 43 0 87 -35 87 -70
0 -15 6 -20 26 -20 19 0 24 4 20 18 -2 9 -7 27 -11 39 -3 12 -20 34 -36 48
-25 21 -41 25 -90 25 -51 0 -63 -4 -91 -29z"/>
<path d="M6240 1275 c0 -198 1 -205 20 -205 19 0 20 7 20 205 0 198 -1 205
-20 205 -19 0 -20 -7 -20 -205z"/>
<path d="M6310 1460 c0 -17 7 -20 48 -21 26 -1 50 -1 55 0 4 0 7 -82 7 -184
l0 -185 25 0 25 0 0 179 0 180 53 3 c45 3 52 6 55 26 3 22 3 22 -132 22 -129
0 -136 -1 -136 -20z"/>
<path d="M6610 1275 l0 -205 114 0 c88 0 115 3 119 14 9 23 -2 26 -95 26 l-88
0 0 70 0 70 65 0 c58 0 65 2 65 20 0 22 -1 22 -75 24 l-50 1 -3 73 -3 73 86
-2 c91 -2 101 1 92 26 -5 12 -26 15 -117 15 l-110 0 0 -205z"/>
<path d="M6864 1466 c-10 -25 2 -31 55 -31 l51 0 0 -182 c0 -176 1 -183 20
-183 19 0 20 8 22 183 l3 182 58 3 c49 3 58 6 55 20 -3 15 -20 17 -131 20
-105 2 -128 0 -133 -12z"/>
</g>
</svg>
