<?xml version="1.0" standalone="no"?>
<!DOCTYPE svg PUBLIC "-//W3C//DTD SVG 20010904//EN"
 "http://www.w3.org/TR/2001/REC-SVG-20010904/DTD/svg10.dtd">
<svg version="1.0" xmlns="http://www.w3.org/2000/svg"
 width="242.000000pt" height="218.000000pt" viewBox="0 0 242.000000 218.000000"
 preserveAspectRatio="xMidYMid meet">

<g transform="translate(0.000000,218.000000) scale(0.100000,-0.100000)"
fill="#000000" stroke="none">
<path d="M902 1827 l-282 -282 285 -285 284 -284 268 264 c147 145 276 273
286 284 18 19 13 24 -265 303 -156 156 -285 283 -288 283 -3 0 -132 -127 -288
-283z m354 -292 c8 -2 12 -45 13 -129 l1 -126 -29 0 c-16 0 -34 -7 -41 -15 -7
-8 -25 -15 -41 -15 -19 0 -29 5 -29 15 0 8 -5 15 -10 15 -7 0 -10 45 -8 128
l3 127 27 0 c15 1 30 4 34 7 6 6 49 2 80 -7z m-178 -77 c0 -7 4 -23 7 -34 6
-19 3 -21 -17 -17 -14 3 -29 -2 -36 -10 -10 -12 -18 -13 -37 -3 -29 13 -31 22
-9 43 16 16 25 11 37 -22 3 -5 7 -7 11 -3 4 3 3 15 -3 26 -9 18 -8 21 12 25
12 2 25 5 28 6 3 0 6 -5 7 -11z m272 3 c0 -4 -3 -11 -7 -15 -5 -4 -8 -13 -8
-19 0 -7 -7 -13 -16 -15 -18 -3 -31 20 -24 41 6 13 55 20 55 8z m50 -41 c0 -8
-10 -21 -21 -29 -18 -11 -23 -11 -30 1 -5 7 -7 18 -4 23 3 6 8 18 11 27 5 14
9 15 25 5 10 -6 19 -19 19 -27z m-320 -71 c7 -11 10 -22 8 -25 -6 -6 -48 26
-48 37 0 17 29 9 40 -12z m260 14 c0 -5 -12 -16 -25 -26 -19 -13 -25 -15 -25
-4 0 7 5 18 12 25 13 13 38 16 38 5z m-315 -43 c7 0 16 -7 19 -16 5 -12 1 -14
-17 -9 -18 5 -16 0 13 -25 19 -17 40 -28 47 -25 8 2 13 -4 13 -15 0 -25 -7
-25 -47 0 -44 26 -67 63 -57 92 4 13 9 17 11 11 3 -7 11 -13 18 -13z m370 -2
c9 -9 -47 -78 -75 -93 -38 -20 -57 -20 -41 -1 9 11 9 15 -1 20 -7 3 -3 3 10 0
19 -5 23 -2 20 13 -2 13 2 17 18 15 27 -4 52 23 29 32 -24 9 -17 24 10 21 14
-1 28 -4 30 -7z m-186 -87 c40 9 67 -5 41 -21 -10 -7 -11 -10 -2 -10 6 0 12
-7 12 -15 0 -18 -11 -19 -44 -4 -19 9 -32 9 -56 -1 -27 -11 -33 -11 -41 1 -5
8 -4 15 1 17 6 2 7 8 4 14 -9 14 17 28 34 19 8 -5 31 -5 51 0z"/>
<path d="M1137 1504 c-4 -4 -7 -15 -7 -25 0 -16 3 -17 25 -7 14 6 24 16 22 22
-4 13 -30 19 -40 10z"/>
<path d="M1204 1499 c-3 -6 0 -15 7 -20 24 -15 37 -10 32 11 -6 22 -28 27 -39
9z"/>
<path d="M1163 1448 c-36 -17 -27 -25 27 -25 28 0 50 3 50 7 0 6 -47 31 -53
29 -1 0 -12 -5 -24 -11z"/>
<path d="M88 853 c-8 -14 52 -195 64 -191 6 2 20 31 30 64 11 32 23 63 28 68
5 4 16 -18 26 -50 10 -33 23 -65 30 -73 11 -12 15 -10 24 15 39 100 58 164 50
169 -12 7 -15 0 -35 -72 -10 -35 -21 -63 -26 -63 -4 0 -17 29 -29 66 -12 36
-27 63 -33 61 -6 -2 -20 -31 -31 -64 -12 -34 -24 -64 -27 -67 -3 -4 -14 22
-24 56 -18 63 -38 98 -47 81z"/>
<path d="M372 768 c-22 -51 -38 -97 -34 -102 3 -6 14 9 24 32 16 36 23 42 49
42 25 0 33 -6 44 -34 15 -34 32 -52 41 -43 5 5 -63 177 -75 190 -4 4 -26 -34
-49 -85z m52 16 c10 -26 7 -34 -14 -34 -11 0 -20 4 -20 9 0 17 12 41 20 41 4
0 11 -7 14 -16z"/>
<path d="M541 841 c-33 -33 -22 -70 28 -91 36 -15 47 -38 26 -59 -12 -13 -21
-13 -46 -4 -26 10 -30 10 -27 -5 5 -24 64 -28 89 -6 10 9 19 30 19 45 0 23 -8
33 -40 51 -29 17 -40 29 -38 43 2 16 10 20 36 18 40 -1 39 20 -1 25 -16 2 -34
-5 -46 -17z"/>
<path d="M664 851 c-2 -2 -4 -46 -4 -97 l0 -93 50 1 c28 0 50 4 50 9 0 5 -16
9 -35 9 -34 0 -35 1 -35 41 0 39 2 41 24 35 14 -3 28 -2 31 4 4 6 -7 10 -25
10 -29 0 -31 2 -28 33 3 27 7 32 30 32 46 0 41 13 -7 17 -26 2 -48 1 -51 -1z"/>
<path d="M835 853 l-40 -4 2 -92 2 -92 37 -3 c20 -1 52 2 71 9 60 20 83 106
41 152 -25 28 -53 35 -113 30z m92 -39 c20 -27 16 -78 -8 -108 -17 -22 -28
-27 -58 -24 l-36 3 -3 64 c-4 88 -1 95 50 88 23 -3 48 -14 55 -23z"/>
<path d="M1537 853 c-12 -11 -8 -23 8 -23 8 0 15 7 15 15 0 16 -12 20 -23 8z"/>
<path d="M2057 853 c-12 -11 -8 -23 8 -23 8 0 15 7 15 15 0 16 -12 20 -23 8z"/>
<path d="M1008 762 c-40 -93 -43 -102 -30 -102 5 0 16 18 25 40 13 35 20 40
46 40 27 0 33 -5 47 -40 14 -35 31 -48 37 -30 4 12 -69 180 -78 180 -5 0 -27
-40 -47 -88z m56 22 c10 -26 7 -34 -14 -34 -11 0 -20 4 -20 9 0 17 12 41 20
41 4 0 11 -7 14 -16z"/>
<path d="M1200 776 c0 -89 17 -116 74 -116 59 0 78 25 83 113 3 51 1 77 -6 77
-7 0 -11 -25 -11 -63 0 -75 -18 -107 -59 -107 -42 0 -56 24 -56 98 -1 42 -5
67 -13 70 -9 3 -12 -17 -12 -72z"/>
<path d="M2122 810 c-13 -34 1 -132 20 -144 9 -5 21 -6 25 -2 4 5 2 11 -4 13
-8 3 -13 23 -13 53 0 29 5 50 13 53 10 4 10 6 0 6 -7 1 -13 10 -13 21 0 26
-18 26 -28 0z"/>
<path d="M1393 784 c-8 -21 2 -119 12 -119 6 0 12 25 15 55 4 47 8 55 27 58
26 4 37 -24 31 -78 -2 -20 2 -35 10 -37 17 -6 17 111 -1 125 -16 14 -88 11
-94 -4z"/>
<path d="M1535 778 c-9 -35 -2 -113 10 -111 13 4 19 113 6 126 -7 7 -12 2 -16
-15z"/>
<path d="M1594 777 c13 -53 47 -120 56 -111 17 17 60 124 49 124 -6 0 -18 -18
-26 -40 -9 -22 -19 -40 -24 -40 -4 0 -14 19 -21 42 -16 47 -45 69 -34 25z"/>
<path d="M1741 782 c-31 -24 -31 -79 -1 -104 27 -22 63 -23 80 -3 11 13 8 14
-20 8 -26 -5 -36 -2 -47 12 -21 30 -16 35 31 35 53 0 64 12 42 45 -19 30 -55
32 -85 7z m57 -4 c19 -19 14 -28 -18 -28 -16 0 -30 4 -30 8 0 9 21 32 30 32 3
0 11 -5 18 -12z"/>
<path d="M1864 791 c-9 -9 -3 -131 6 -131 6 0 10 19 10 43 0 47 7 60 33 70 28
10 19 26 -14 24 -17 -1 -32 -4 -35 -6z"/>
<path d="M1955 784 c-22 -22 -15 -46 18 -62 39 -19 37 -46 -4 -38 -22 4 -29 2
-27 -7 7 -19 48 -20 69 -1 27 24 24 42 -11 62 -35 20 -36 49 -1 44 15 -2 21 0
17 7 -10 16 -42 13 -61 -5z"/>
<path d="M2058 793 c-9 -16 -3 -123 7 -123 13 0 19 110 7 122 -6 6 -12 6 -14
1z"/>
<path d="M2197 794 c-3 -3 6 -33 20 -66 25 -57 26 -60 10 -94 -20 -41 -20 -44
-7 -44 6 0 13 8 17 18 3 9 21 52 40 96 18 43 32 84 30 90 -3 6 -15 -11 -27
-39 l-22 -50 -24 48 c-25 49 -27 51 -37 41z"/>
<path d="M1418 584 c-5 -4 -8 -18 -8 -31 0 -21 -4 -23 -46 -23 -32 0 -44 -4
-41 -12 2 -8 19 -13 41 -12 24 1 36 -3 36 -12 0 -28 -25 -65 -57 -86 -22 -13
-31 -24 -25 -30 14 -14 46 6 78 48 l27 35 18 -28 c32 -49 89 -81 89 -50 0 6
-13 19 -29 29 -29 16 -68 75 -57 85 3 3 20 6 38 7 52 2 49 21 -4 24 -44 3 -47
5 -50 33 -2 17 -6 27 -10 23z"/>
<path d="M647 573 c-4 -7 -2 -63 2 -95 1 -5 17 -8 37 -8 24 0 34 -4 31 -12 -2
-8 -20 -13 -42 -13 -22 0 -40 -5 -42 -12 -3 -9 9 -13 41 -13 42 0 46 -2 46
-25 0 -14 5 -25 10 -25 6 0 10 11 10 25 0 23 4 25 44 25 25 0 48 4 51 10 7 11
-30 22 -60 18 -11 -2 -21 2 -23 7 -1 6 12 12 30 15 32 5 33 6 33 55 l0 50 -82
3 c-45 1 -83 -1 -86 -5z m143 -23 c0 -6 -27 -10 -60 -10 -33 0 -60 4 -60 10 0
6 27 10 60 10 33 0 60 -4 60 -10z m-2 -47 c3 -10 -13 -13 -57 -13 -57 0 -71 6
-54 24 12 12 106 2 111 -11z"/>
<path d="M866 572 c-11 -10 -6 -22 9 -22 23 0 18 -21 -6 -27 -20 -6 -21 -7 -5
-19 16 -11 16 -15 2 -43 -21 -39 -20 -44 4 -36 17 5 20 2 20 -24 0 -17 5 -31
10 -31 6 0 10 18 10 41 0 52 24 48 28 -4 8 -99 30 10 24 121 -1 27 18 29 25 2
7 -28 23 -25 23 5 0 20 5 25 25 25 14 0 25 4 25 10 0 10 -184 12 -194 2z m74
-27 c0 -16 -6 -25 -15 -25 -28 0 -18 40 13 49 1 1 2 -10 2 -24z m3 -56 c-4
-15 -9 -17 -17 -9 -8 8 -7 13 4 20 8 5 16 10 17 10 0 0 -1 -9 -4 -21z"/>
<path d="M1570 565 c0 -8 -4 -15 -10 -15 -5 0 -10 -13 -10 -30 0 -34 15 -40
23 -10 5 18 14 20 75 20 39 0 74 -4 77 -10 4 -6 -20 -10 -64 -10 -38 0 -73 -4
-76 -10 -4 -6 10 -10 34 -10 23 0 41 -4 41 -8 0 -20 -28 -32 -73 -32 -29 0
-46 -4 -42 -10 3 -5 26 -10 51 -10 37 0 44 -3 44 -20 0 -13 -7 -20 -20 -20
-11 0 -20 -4 -20 -10 0 -5 14 -10 30 -10 26 0 31 5 37 30 5 28 9 30 49 30 24
0 44 5 44 10 0 6 -18 10 -41 10 -47 0 -44 15 7 36 36 15 47 50 18 61 -8 3 -13
12 -10 19 3 8 -1 14 -8 14 -8 0 -16 -7 -20 -15 -3 -8 -12 -15 -21 -15 -9 0
-18 7 -21 15 -4 8 -12 15 -20 15 -8 0 -11 -6 -8 -15 4 -10 0 -15 -14 -15 -11
0 -22 7 -26 15 -3 8 -10 15 -16 15 -5 0 -10 -7 -10 -15z"/>
<path d="M1097 563 c-4 -3 -7 -47 -7 -97 l0 -91 100 0 100 0 0 98 0 97 -93 0
c-52 0 -97 -3 -100 -7z m83 -43 c0 -27 -3 -30 -30 -30 -27 0 -30 3 -30 30 0
27 3 30 30 30 27 0 30 -3 30 -30z m85 0 c0 -21 -5 -25 -30 -25 -25 0 -30 4
-33 28 -3 27 -1 28 30 25 28 -2 33 -7 33 -28z m-87 -82 c-2 -28 -8 -34 -30
-36 -26 -3 -28 -1 -28 32 0 33 2 36 31 36 28 0 30 -2 27 -32z m87 -3 c0 -27
-3 -30 -30 -30 -21 0 -31 5 -33 18 -6 33 6 49 35 45 24 -3 28 -8 28 -33z"/>
<path d="M1032 518 c-6 -17 -15 -29 -18 -25 -4 3 -15 2 -24 -3 -14 -8 -18 -21
-16 -62 l1 -53 44 -3 44 -3 -5 76 c-3 41 -1 78 3 81 13 8 11 24 -4 24 -7 0
-18 -14 -25 -32z m6 -60 c-3 -7 -11 -13 -18 -13 -7 0 -15 6 -17 13 -3 7 4 12
17 12 13 0 20 -5 18 -12z m0 -45 c2 -8 -5 -13 -17 -13 -12 0 -21 6 -21 16 0
18 31 15 38 -3z"/>
</g>
</svg>
